<?xml version="1.0" encoding="utf-8"?>
<!-- Generator: Adobe Illustrator 16.0.0, SVG Export Plug-In . SVG Version: 6.00 Build 0)  -->
<!DOCTYPE svg PUBLIC "-//W3C//DTD SVG 1.1//EN" "http://www.w3.org/Graphics/SVG/1.1/DTD/svg11.dtd">
<svg version="1.1" id="圖層_1" xmlns="http://www.w3.org/2000/svg" xmlns:xlink="http://www.w3.org/1999/xlink" x="0px" y="0px"
	 width="1024px" height="1024px" viewBox="0 0 1024 1024" enable-background="new 0 0 1024 1024" xml:space="preserve">
<filter  width="122.3%" height="123.2%" id="filter-9" filterUnits="objectBoundingBox" y="-11.6%" x="-11.2%">
	<feMorphology  operator="dilate" radius="10" result="shadowSpreadOuter1" in="SourceAlpha"></feMorphology>
	<feOffset  result="shadowOffsetOuter1" in="shadowSpreadOuter1" dy="0" dx="0"></feOffset>
	<feMorphology  operator="erode" radius="10" result="shadowInner" in="SourceAlpha"></feMorphology>
	<feOffset  result="shadowInner" in="shadowInner" dy="0" dx="0"></feOffset>
	<feComposite  operator="out" in2="shadowInner" result="shadowOffsetOuter1" in="shadowOffsetOuter1"></feComposite>
	<feGaussianBlur  stdDeviation="22" result="shadowBlurOuter1" in="shadowOffsetOuter1"></feGaussianBlur>
	<feColorMatrix  type="matrix" values="0 0 0 0 0   0 0 0 0 0.507246377   0 0 0 0 1  0 0 0 1 0" in="shadowBlurOuter1">
		</feColorMatrix>
</filter>
<g id="Neon-VSInifity">
	<g id="Holders" transform="translate(644.000000, 803.000000)">
		
			<path id="Path-10" fill="none" stroke="#5A90C9" stroke-width="21" stroke-linecap="round" stroke-linejoin="round" stroke-opacity="0.2506" d="
			M91.963,10.5V35"/>
		
			<path id="Path-10_1_" fill="none" stroke="#5A90C9" stroke-width="21" stroke-linecap="round" stroke-linejoin="round" stroke-opacity="0.2506" d="
			M0.25,1.167v24.5"/>
		
			<path id="Path-10_2_" fill="none" stroke="#000000" stroke-width="21" stroke-linecap="round" stroke-linejoin="round" stroke-opacity="0.3006" d="
			M100.089,9.334v24.5"/>
		
			<path id="Path-10_3_" fill="none" stroke="#000000" stroke-width="21" stroke-linecap="round" stroke-linejoin="round" stroke-opacity="0.3006" d="
			M9.537,0v24.5"/>
	</g>
	<g id="Path-14">
		<g filter="url(#filter-9)">
			<path id="path-8_4_" d="M651.523,800.533L439.781,588.154c-4.507-4.521-4.495-11.839,0.024-16.346
				c0.233-0.232,24.123-18.656,71.668-55.272c4.199-3.231,10.058-3.193,14.215,0.092l140.405,110.954
				c5.009,3.957,12.276,3.105,16.234-1.902c1.612-2.04,2.489-4.565,2.489-7.166V360.121c0-6.383-5.174-11.558-11.558-11.558
				c-2.547,0-5.022,0.842-7.042,2.394L238.63,679.54c-6.487,4.984-15.125,6.17-22.715,3.115l-36.096-14.526
				c-8.752-3.522-14.486-12.01-14.486-21.444V340.797c0-8.249,4.396-15.872,11.534-20.005l33.537-19.416
				c7.987-4.624,17.959-4.055,25.367,1.449l128.896,95.764c5.123,3.807,6.191,11.046,2.385,16.17
				c-0.249,0.334-15.259,14.951-45.029,43.851c-4.584,4.442-11.901,4.328-16.344-0.256c-0.042-0.044-20.221-21.882-60.535-65.514
				c-4.332-4.688-11.644-4.978-16.333-0.646c-2.368,2.188-3.714,5.265-3.714,8.488v181.579c0,6.384,5.175,11.558,11.558,11.558
				c3.068,0,6.011-1.22,8.179-3.392l428.344-429.059c6.965-6.977,17.59-8.769,26.458-4.461l133.067,64.633
				c7.961,3.867,13.016,11.941,13.016,20.793v505.294c0,9.146-5.393,17.432-13.755,21.136l-95.462,42.275"/>
		</g>
		<g>
			
				<path id="path-8_1_" fill="none" stroke="#63B2FF" stroke-width="20" stroke-linecap="round" stroke-linejoin="round" stroke-dasharray="5,1,4" d="
				M651.523,800.533L439.781,588.154c-4.507-4.521-4.495-11.839,0.024-16.346c0.233-0.232,24.123-18.656,71.668-55.272
				c4.199-3.231,10.058-3.193,14.215,0.092l140.405,110.954c5.009,3.957,12.276,3.105,16.234-1.902
				c1.612-2.04,2.489-4.565,2.489-7.166V360.121c0-6.383-5.174-11.558-11.558-11.558c-2.547,0-5.022,0.842-7.042,2.394
				L238.63,679.54c-6.487,4.984-15.125,6.17-22.715,3.115l-36.096-14.526c-8.752-3.522-14.486-12.01-14.486-21.444V340.797
				c0-8.249,4.396-15.872,11.534-20.005l33.537-19.416c7.987-4.624,17.959-4.055,25.367,1.449l128.896,95.764
				c5.123,3.807,6.191,11.046,2.385,16.17c-0.249,0.334-15.259,14.951-45.029,43.851c-4.584,4.442-11.901,4.328-16.344-0.256
				c-0.042-0.044-20.221-21.882-60.535-65.514c-4.332-4.688-11.644-4.978-16.333-0.646c-2.368,2.188-3.714,5.265-3.714,8.488
				v181.579c0,6.384,5.175,11.558,11.558,11.558c3.068,0,6.011-1.22,8.179-3.392l428.344-429.059
				c6.965-6.977,17.59-8.769,26.458-4.461l133.067,64.633c7.961,3.867,13.016,11.941,13.016,20.793v505.294
				c0,9.146-5.393,17.432-13.755,21.136l-95.462,42.275"/>
		</g>
		<g>
			
				<path id="path-8_2_" fill="none" stroke="#5196D9" stroke-width="14" stroke-linecap="round" stroke-linejoin="round" stroke-dasharray="5,1,4" d="
				M651.523,800.533L439.781,588.154c-4.507-4.521-4.495-11.839,0.024-16.346c0.233-0.232,24.123-18.656,71.668-55.272
				c4.199-3.231,10.058-3.193,14.215,0.092l140.405,110.954c5.009,3.957,12.276,3.105,16.234-1.902
				c1.612-2.04,2.489-4.565,2.489-7.166V360.121c0-6.383-5.174-11.558-11.558-11.558c-2.547,0-5.022,0.842-7.042,2.394
				L238.63,679.54c-6.487,4.984-15.125,6.17-22.715,3.115l-36.096-14.526c-8.752-3.522-14.486-12.01-14.486-21.444V340.797
				c0-8.249,4.396-15.872,11.534-20.005l33.537-19.416c7.987-4.624,17.959-4.055,25.367,1.449l128.896,95.764
				c5.123,3.807,6.191,11.046,2.385,16.17c-0.249,0.334-15.259,14.951-45.029,43.851c-4.584,4.442-11.901,4.328-16.344-0.256
				c-0.042-0.044-20.221-21.882-60.535-65.514c-4.332-4.688-11.644-4.978-16.333-0.646c-2.368,2.188-3.714,5.265-3.714,8.488
				v181.579c0,6.384,5.175,11.558,11.558,11.558c3.068,0,6.011-1.22,8.179-3.392l428.344-429.059
				c6.965-6.977,17.59-8.769,26.458-4.461l133.067,64.633c7.961,3.867,13.016,11.941,13.016,20.793v505.294
				c0,9.146-5.393,17.432-13.755,21.136l-95.462,42.275"/>
		</g>
		<g>
			
				<path id="path-8_3_" fill="none" stroke="#FFFFFF" stroke-width="5" stroke-linecap="round" stroke-linejoin="round" stroke-dasharray="5,1,4" d="
				M651.523,800.533L439.781,588.154c-4.507-4.521-4.495-11.839,0.024-16.346c0.233-0.232,24.123-18.656,71.668-55.272
				c4.199-3.231,10.058-3.193,14.215,0.092l140.405,110.954c5.009,3.957,12.276,3.105,16.234-1.902
				c1.612-2.04,2.489-4.565,2.489-7.166V360.121c0-6.383-5.174-11.558-11.558-11.558c-2.547,0-5.022,0.842-7.042,2.394
				L238.63,679.54c-6.487,4.984-15.125,6.17-22.715,3.115l-36.096-14.526c-8.752-3.522-14.486-12.01-14.486-21.444V340.797
				c0-8.249,4.396-15.872,11.534-20.005l33.537-19.416c7.987-4.624,17.959-4.055,25.367,1.449l128.896,95.764
				c5.123,3.807,6.191,11.046,2.385,16.17c-0.249,0.334-15.259,14.951-45.029,43.851c-4.584,4.442-11.901,4.328-16.344-0.256
				c-0.042-0.044-20.221-21.882-60.535-65.514c-4.332-4.688-11.644-4.978-16.333-0.646c-2.368,2.188-3.714,5.265-3.714,8.488
				v181.579c0,6.384,5.175,11.558,11.558,11.558c3.068,0,6.011-1.22,8.179-3.392l428.344-429.059
				c6.965-6.977,17.59-8.769,26.458-4.461l133.067,64.633c7.961,3.867,13.016,11.941,13.016,20.793v505.294
				c0,9.146-5.393,17.432-13.755,21.136l-95.462,42.275"/>
		</g>
	</g>
</g>
</svg>
